<svg width="32" height="32" viewBox="0 0 32 32" fill="none" xmlns="http://www.w3.org/2000/svg">
<path d="M22.2906 16.1719V12.1381L23.6861 12.8772L24.5401 11.2648L20.7931 9.28026V6.68731H18.9685V8.31392L15.7949 6.6331L14.4154 7.406V3.98136C14.4154 1.91092 12.7311 0.226562 10.6607 0.226562C8.59032 0.226562 6.90596 1.91098 6.90596 3.98136V6.3768C6.31914 5.99674 5.62065 5.775 4.87099 5.775C2.80061 5.775 1.11625 7.45942 1.11625 9.52975V15.6839C1.11625 17.0909 1.89457 18.3189 3.04279 18.9619C2.11904 19.5701 0.09375 21.2629 0.09375 21.2629L0.0939325 31.3486H31.2481L31.2484 21.3136L30.9451 21.0417C28.4273 18.7842 25.4709 17.134 22.2906 16.1719ZM29.4237 24.4616C29.4032 24.4409 29.383 24.42 29.3625 24.3994C25.6981 20.7349 20.826 18.7169 15.6437 18.7169C12.1151 18.7169 8.7307 19.6534 5.77302 21.4073V19.4619C8.78978 17.8649 12.1719 17.014 15.6437 17.014C20.717 17.014 25.594 18.8288 29.4238 22.1334L29.4237 24.4616ZM15.8196 8.71084L20.466 11.1718V15.7014C19.2903 15.4491 18.0908 15.2888 16.8773 15.2237V13.0389H15.0527V15.1976C13.8753 15.2278 12.7089 15.3482 11.5628 15.555V13.78C13.1988 13.3749 14.4155 11.8949 14.4155 10.1355V9.49749L15.8196 8.71084ZM8.73052 3.98136C8.73052 2.917 9.59639 2.05112 10.6607 2.05112C11.725 2.05112 12.5909 2.917 12.5909 3.98136V10.1355C12.5909 11.1997 11.725 12.0657 10.6607 12.0657C9.59639 12.0657 8.73052 11.1998 8.73052 10.1355V3.98136ZM2.94081 9.52981C2.94081 8.46556 3.80669 7.59962 4.87099 7.59962C5.9353 7.59962 6.80118 8.4655 6.80118 9.52981V15.684C6.80118 16.7483 5.9353 17.6142 4.87099 17.6142C3.80669 17.6142 2.94081 16.7483 2.94081 15.684V9.52981ZM8.62573 15.6841V13.2886C8.96345 13.5073 9.33785 13.6738 9.73817 13.7754V15.9624C9.34673 16.0666 8.95827 16.1806 8.5734 16.3053C8.60724 16.1031 8.62573 15.8957 8.62573 15.6841ZM3.94853 20.5504V22.6355C3.24067 23.1725 2.56403 23.7603 1.92487 24.3995C1.92268 24.4017 1.92055 24.4039 1.91836 24.4061L1.9183 22.0864C2.5664 21.531 3.24493 21.0192 3.94853 20.5504ZM24.374 29.3881C22.042 27.0562 18.9415 25.7719 15.6437 25.7719C12.3603 25.7719 9.2728 27.0454 6.94436 29.3581L6.91357 29.3273C6.84907 29.3918 6.78506 29.4577 6.72153 29.524H4.52793C4.89217 29.055 5.28653 28.6069 5.70937 28.1841C8.36293 25.5304 11.891 24.0691 15.6437 24.0691C19.3963 24.0691 22.9245 25.5305 25.578 28.184C26.0009 28.6069 26.3953 29.055 26.7596 29.524H24.5066C24.4624 29.4785 24.4186 29.4328 24.374 29.3881ZM21.7177 29.524H9.56986C11.3337 28.2718 13.4367 27.5966 15.6437 27.5966C17.8507 27.5966 19.9538 28.2717 21.7177 29.524ZM28.9952 29.524C28.3848 28.5799 27.6712 27.6968 26.8682 26.8938C23.87 23.8956 19.8837 22.2445 15.6437 22.2445C11.4036 22.2445 7.41734 23.8957 4.41919 26.8939C3.61623 27.6968 2.90247 28.5799 2.29204 29.524H1.91842L1.91836 27.1357C2.32246 26.633 2.75698 26.1477 3.21499 25.6897C6.53485 22.3699 10.9488 20.5416 15.6437 20.5416C20.3386 20.5416 24.7526 22.3699 28.0724 25.6897C28.5509 26.1683 29.0046 26.6773 29.4236 27.2038L29.4235 29.524H28.9952Z" fill="black"/>
<path d="M27.9599 6.77672C29.775 6.77672 31.2518 5.29992 31.2518 3.48473C31.2518 1.66961 29.775 0.192871 27.9599 0.192871C26.1447 0.192871 24.668 1.66961 24.668 3.48479C24.668 5.29998 26.1447 6.77672 27.9599 6.77672ZM27.9599 2.01742C28.7689 2.01742 29.4272 2.67569 29.4272 3.48473C29.4272 4.29384 28.7689 4.9521 27.9599 4.9521C27.1508 4.9521 26.4925 4.29384 26.4925 3.48473C26.4925 2.67569 27.1508 2.01742 27.9599 2.01742Z" fill="black"/>
</svg>
