<svg width="27" height="32" viewBox="0 0 27 32" fill="none" xmlns="http://www.w3.org/2000/svg">
<path d="M25.7171 11.157H14.4601V0.995252C14.4601 0.49118 14.0514 0.0825195 13.5473 0.0825195H1.37758C0.873505 0.0825195 0.464844 0.49118 0.464844 0.995252V30.3244C0.464844 30.8285 0.873505 31.2371 1.37758 31.2371C2.34939 31.2371 24.4405 31.2371 25.7171 31.2371C26.2212 31.2371 26.6299 30.8285 26.6299 30.3244V12.0697C26.6299 11.5657 26.2212 11.157 25.7171 11.157ZM8.98368 29.4117H5.94124V23.9353H8.98368V29.4117ZM12.6346 29.4117H10.8092V23.0225C10.8092 22.5185 10.4005 22.1098 9.89642 22.1098H5.02851C4.52444 22.1098 4.11578 22.5185 4.11578 23.0225V29.4117H2.29031V1.90799H12.6346C12.6346 2.17955 12.6346 28.7131 12.6346 29.4117ZM24.8044 29.4117H14.4601V12.9825H24.8044V29.4117Z" fill="black"/>
<path d="M22.6812 26.3691H16.5963C16.0923 26.3691 15.6836 26.7778 15.6836 27.2819C15.6836 27.7859 16.0923 28.1946 16.5963 28.1946H22.6812C23.1853 28.1946 23.5939 27.7859 23.5939 27.2819C23.5939 26.7778 23.1853 26.3691 22.6812 26.3691Z" fill="black"/>
<path d="M22.6812 22.3125H16.5963C16.0923 22.3125 15.6836 22.7212 15.6836 23.2252C15.6836 23.7293 16.0923 24.138 16.5963 24.138H22.6812C23.1853 24.138 23.5939 23.7293 23.5939 23.2252C23.5939 22.7212 23.1853 22.3125 22.6812 22.3125Z" fill="black"/>
<path d="M22.6812 18.2563H16.5963C16.0923 18.2563 15.6836 18.665 15.6836 19.1691C15.6836 19.6732 16.0923 20.0818 16.5963 20.0818H22.6812C23.1853 20.0818 23.5939 19.6732 23.5939 19.1691C23.5939 18.665 23.1853 18.2563 22.6812 18.2563Z" fill="black"/>
<path d="M22.6812 14.1997H16.5963C16.0923 14.1997 15.6836 14.6084 15.6836 15.1124C15.6836 15.6165 16.0923 16.0252 16.5963 16.0252H22.6812C23.1853 16.0252 23.5939 15.6165 23.5939 15.1124C23.5939 14.6084 23.1853 14.1997 22.6812 14.1997Z" fill="black"/>
<path d="M5.94567 3.125H4.42445C3.92038 3.125 3.51172 3.53366 3.51172 4.03773C3.51172 4.5418 3.92038 4.95047 4.42445 4.95047H5.94567C6.44974 4.95047 6.85841 4.5418 6.85841 4.03773C6.85841 3.53366 6.44974 3.125 5.94567 3.125Z" fill="black"/>
<path d="M5.94567 7.11011H4.42445C3.92038 7.11011 3.51172 7.51877 3.51172 8.02284C3.51172 8.52691 3.92038 8.93557 4.42445 8.93557H5.94567C6.44974 8.93557 6.85841 8.52691 6.85841 8.02284C6.85841 7.51877 6.44974 7.11011 5.94567 7.11011Z" fill="black"/>
<path d="M5.94567 11.0962H4.42445C3.92038 11.0962 3.51172 11.5049 3.51172 12.0089C3.51172 12.513 3.92038 12.9217 4.42445 12.9217H5.94567C6.44974 12.9217 6.85841 12.513 6.85841 12.0089C6.85841 11.5049 6.44974 11.0962 5.94567 11.0962Z" fill="black"/>
<path d="M5.94567 15.0815H4.42445C3.92038 15.0815 3.51172 15.4902 3.51172 15.9943C3.51172 16.4983 3.92038 16.907 4.42445 16.907H5.94567C6.44974 16.907 6.85841 16.4983 6.85841 15.9943C6.85841 15.4902 6.44974 15.0815 5.94567 15.0815Z" fill="black"/>
<path d="M5.94567 19.0671H4.42445C3.92038 19.0671 3.51172 19.4758 3.51172 19.9799C3.51172 20.4839 3.92038 20.8926 4.42445 20.8926H5.94567C6.44974 20.8926 6.85841 20.4839 6.85841 19.9799C6.85841 19.4758 6.44974 19.0671 5.94567 19.0671Z" fill="black"/>
<path d="M10.5082 3.12524H8.98695C8.48288 3.12524 8.07422 3.53391 8.07422 4.03798C8.07422 4.54205 8.48288 4.95071 8.98695 4.95071H10.5082C11.0122 4.95071 11.4209 4.54205 11.4209 4.03798C11.4209 3.53391 11.0122 3.12524 10.5082 3.12524Z" fill="black"/>
<path d="M10.5082 7.11035H8.98695C8.48288 7.11035 8.07422 7.51901 8.07422 8.02308C8.07422 8.52716 8.48288 8.93582 8.98695 8.93582H10.5082C11.0122 8.93582 11.4209 8.52716 11.4209 8.02308C11.4209 7.51901 11.0122 7.11035 10.5082 7.11035Z" fill="black"/>
<path d="M10.5082 11.0959H8.98695C8.48288 11.0959 8.07422 11.5046 8.07422 12.0087C8.07422 12.5128 8.48288 12.9214 8.98695 12.9214H10.5082C11.0122 12.9214 11.4209 12.5128 11.4209 12.0087C11.4209 11.5046 11.0122 11.0959 10.5082 11.0959Z" fill="black"/>
<path d="M10.5082 15.0813H8.98695C8.48288 15.0813 8.07422 15.49 8.07422 15.994C8.07422 16.4981 8.48288 16.9068 8.98695 16.9068H10.5082C11.0122 16.9068 11.4209 16.4981 11.4209 15.994C11.4209 15.49 11.0122 15.0813 10.5082 15.0813Z" fill="black"/>
<path d="M10.5082 19.0671H8.98695C8.48288 19.0671 8.07422 19.4758 8.07422 19.9799C8.07422 20.4839 8.48288 20.8926 8.98695 20.8926H10.5082C11.0122 20.8926 11.4209 20.4839 11.4209 19.9799C11.4209 19.4758 11.0122 19.0671 10.5082 19.0671Z" fill="black"/>
</svg>
