<svg width="32" height="32" viewBox="0 0 32 32" fill="none" xmlns="http://www.w3.org/2000/svg">
<path d="M17.5323 17.7898H13.8815C13.3774 17.7898 12.9688 18.1985 12.9688 18.7025V22.3535C12.9688 22.8575 13.3774 23.2662 13.8815 23.2662H17.5323C18.0364 23.2662 18.445 22.8575 18.445 22.3535V18.7025C18.445 18.1985 18.0364 17.7898 17.5323 17.7898ZM16.6196 21.4407H14.7942V19.6153H16.6196V21.4407Z" fill="black"/>
<path d="M10.8409 17.7896H7.19008C6.686 17.7896 6.27734 18.1982 6.27734 18.7023V22.3532C6.27734 22.8573 6.686 23.2659 7.19008 23.2659H10.8409C11.345 23.2659 11.7536 22.8573 11.7536 22.3532V18.7023C11.7536 18.1982 11.345 17.7896 10.8409 17.7896ZM9.92821 21.4405H8.10281V19.615H9.92821V21.4405Z" fill="black"/>
<path d="M30.9758 26.3084H29.3938V16.5726H30.9758C31.5846 16.5726 32.0223 15.9868 31.8519 15.4037L28.6495 4.45092C28.5357 4.06173 28.1789 3.7943 27.7735 3.7943H25.4843V1.90799C25.9884 1.90799 26.397 1.49932 26.397 0.995252C26.397 0.49118 25.9884 0.0825195 25.4843 0.0825195C24.5838 0.0825195 20.5633 0.0825195 20.0081 0.0825195C19.504 0.0825195 19.0953 0.49118 19.0953 0.995252C19.0953 1.49932 19.504 1.90799 20.0081 1.90799V3.7943H4.84995C4.44451 3.7943 4.08769 4.06173 3.9739 4.45092L0.771551 15.4037C0.600748 15.9881 1.04008 16.5726 1.64759 16.5726H3.2296V26.3084H1.64759C1.14352 26.3084 0.734859 26.717 0.734859 27.2211V30.3244C0.734859 30.8285 1.14352 31.2371 1.64759 31.2371H30.9758C31.4799 31.2371 31.8886 30.8285 31.8886 30.3244V27.2211C31.8885 26.717 31.4799 26.3084 30.9758 26.3084ZM21.8335 1.90799H23.6589V3.7943H21.8335V1.90799ZM2.86536 14.7471L5.53401 5.61977C5.68674 5.61977 26.753 5.61977 27.0894 5.61977L29.758 14.7471C29.3877 14.7471 22.2391 14.7471 21.8674 14.7471L16.9794 9.5004C16.6184 9.11285 16.0042 9.11359 15.6439 9.5004L10.756 14.7471C10.3843 14.7471 3.23569 14.7471 2.86536 14.7471ZM23.0049 17.7895C21.1596 17.7895 19.6583 19.2909 19.6583 21.1362V26.3084H5.05501V16.5726H11.1531C11.4064 16.5726 11.6482 16.4674 11.8209 16.282L16.3117 11.4616L20.8025 16.282C20.9751 16.4673 21.217 16.5726 21.4703 16.5726H27.5684V26.3084H26.3514V21.1362C26.3514 19.2909 24.8502 17.7895 23.0049 17.7895ZM24.526 26.3084H21.4837V21.1362C21.4837 20.2974 22.1661 19.615 23.0049 19.615C23.8437 19.615 24.526 20.2974 24.526 21.1362V26.3084ZM30.0632 29.4117H2.56033V28.1338C2.9915 28.1338 29.6356 28.1338 30.0632 28.1338V29.4117Z" fill="black"/>
</svg>