<svg width="32" height="32" viewBox="0 0 32 32" fill="none" xmlns="http://www.w3.org/2000/svg">
<path d="M17.5381 29.522H15.1041C14.6001 29.522 14.1914 29.9306 14.1914 30.4347C14.1914 30.9388 14.6001 31.3474 15.1041 31.3474H17.5381C18.0422 31.3474 18.4508 30.9388 18.4508 30.4347C18.4508 29.9306 18.0422 29.522 17.5381 29.522Z" fill="black"/>
<path d="M10.2373 29.522H7.80336C7.29929 29.522 6.89062 29.9306 6.89062 30.4347C6.89062 30.9388 7.29929 31.3474 7.80336 31.3474H10.2373C10.7414 31.3474 11.15 30.9388 11.15 30.4347C11.15 29.9306 10.7414 29.522 10.2373 29.522Z" fill="black"/>
<path d="M24.8389 29.522H22.4049C21.9008 29.522 21.4922 29.9306 21.4922 30.4347C21.4922 30.9388 21.9008 31.3474 22.4049 31.3474H24.8389C25.3429 31.3474 25.7516 30.9388 25.7516 30.4347C25.7516 29.9306 25.3429 29.522 24.8389 29.522Z" fill="black"/>
<path d="M17.5381 29.522H15.1041C14.6001 29.522 14.1914 29.9306 14.1914 30.4347C14.1914 30.9388 14.6001 31.3474 15.1041 31.3474H17.5381C18.0422 31.3474 18.4508 30.9388 18.4508 30.4347C18.4508 29.9306 18.0422 29.522 17.5381 29.522Z" fill="black"/>
<path d="M10.2373 29.522H7.80336C7.29929 29.522 6.89062 29.9306 6.89062 30.4347C6.89062 30.9388 7.29929 31.3474 7.80336 31.3474H10.2373C10.7414 31.3474 11.15 30.9388 11.15 30.4347C11.15 29.9306 10.7414 29.522 10.2373 29.522Z" fill="black"/>
<path d="M24.8389 29.522H22.4049C21.9008 29.522 21.4922 29.9306 21.4922 30.4347C21.4922 30.9388 21.9008 31.3474 22.4049 31.3474H24.8389C25.3429 31.3474 25.7516 30.9388 25.7516 30.4347C25.7516 29.9306 25.3429 29.522 24.8389 29.522Z" fill="black"/>
<path d="M30.9802 17.3523H29.3981V7.00794H30.9802C31.4842 7.00794 31.8929 6.59928 31.8929 6.09521C31.8929 5.59114 31.4842 5.18248 30.9802 5.18248C30.6937 5.18248 28.5036 5.18248 28.1811 5.18248V2.01834H29.7632C30.2673 2.01834 30.6759 1.60968 30.6759 1.1056C30.6759 0.601532 30.2673 0.192871 29.7632 0.192871C27.9431 0.192871 3.64813 0.192871 2.86799 0.192871C2.36392 0.192871 1.95526 0.601532 1.95526 1.1056C1.95526 1.60968 2.36392 2.01834 2.86799 2.01834H4.45006V5.18248C4.12756 5.18248 1.93749 5.18248 1.65101 5.18248C1.14694 5.18248 0.738281 5.59114 0.738281 6.09521C0.738281 6.59928 1.14694 7.00794 1.65101 7.00794H3.23308V17.3523H1.65101C1.14694 17.3523 0.738281 17.7609 0.738281 18.265C0.738281 18.7691 1.14694 19.1777 1.65101 19.1777H3.23308V30.4348C3.23308 30.9388 3.64175 31.3475 4.14582 31.3475C5.86431 31.3475 27.622 31.3475 28.4854 31.3475C28.9894 31.3475 29.3981 30.9388 29.3981 30.4348V19.1777H30.9802C31.4842 19.1777 31.8929 18.7691 31.8929 18.265C31.8929 17.7609 31.4842 17.3523 30.9802 17.3523ZM6.27553 2.01834H26.3557V5.18248H6.27553V2.01834ZM9.92646 29.522H8.10099V25.2626H9.92646V29.522ZM17.2283 29.522H15.4029V25.2626H17.2283V29.522ZM24.5302 29.522H22.7047V25.2626H24.5302V29.522ZM27.5726 29.522H26.3557V24.3499C26.3557 23.8458 25.947 23.4371 25.4429 23.4371H21.792C21.2879 23.4371 20.8793 23.8458 20.8793 24.3499V29.522H19.0538V24.3499C19.0538 23.8458 18.6451 23.4371 18.1411 23.4371H14.4901C13.9861 23.4371 13.5774 23.8458 13.5774 24.3499V29.522H11.7519V24.3499C11.7519 23.8458 11.3433 23.4371 10.8392 23.4371H7.18826C6.68419 23.4371 6.27553 23.8458 6.27553 24.3499V29.522H5.05855V19.1777C5.69619 19.1777 27.0485 19.1777 27.5726 19.1777V29.522ZM8.10099 17.3523V13.0928H9.92646V17.3523H8.10099ZM15.4029 17.3523V13.0928H17.2283V17.3523H15.4029ZM22.7047 17.3523V13.0928H24.5302V17.3523H22.7047ZM27.5726 17.3523H26.3557V12.1801C26.3557 11.676 25.947 11.2674 25.4429 11.2674H21.792C21.2879 11.2674 20.8793 11.676 20.8793 12.1801V17.3523H19.0538V12.1801C19.0538 11.676 18.6451 11.2674 18.1411 11.2674H14.4901C13.9861 11.2674 13.5774 11.676 13.5774 12.1801V17.3523H11.7519V12.1801C11.7519 11.676 11.3433 11.2674 10.8392 11.2674H7.18826C6.68419 11.2674 6.27553 11.676 6.27553 12.1801V17.3523H5.05855V7.00794C5.66369 7.00794 27.4534 7.00794 27.5726 7.00794V17.3523Z" fill="black"/>
</svg>
