<svg width="32" height="32" viewBox="0 0 32 32" fill="none" xmlns="http://www.w3.org/2000/svg">
<path d="M31.3636 12.3066L29.7621 6.83022C29.6483 6.44109 29.2915 6.17366 28.8861 6.17366H20.6744L16.534 1.03717C16.3608 0.822249 16.0995 0.697266 15.8234 0.697266C15.5474 0.697266 15.2861 0.822249 15.1128 1.03717L10.9725 6.17366H2.76082C2.35544 6.17366 1.99862 6.44109 1.88477 6.83022L0.283293 12.3066C0.112429 12.891 0.551758 13.4755 1.15933 13.4755H2.13285V30.9391C2.13285 31.4432 2.54152 31.8519 3.04559 31.8519C3.56804 31.8519 28.1415 31.8519 28.6013 31.8519C29.1054 31.8519 29.5141 31.4432 29.5141 30.9391V13.4755H30.4876C31.0964 13.4755 31.5341 12.8898 31.3636 12.3066ZM2.3771 11.6501L3.44482 7.99913H9.52903C9.2313 8.60226 9.66826 9.31651 10.3471 9.31651H10.6514V11.6501C10.1763 11.6501 2.64812 11.6501 2.3771 11.6501ZM10.6515 30.0264H3.95832V13.4755H10.6515C10.6515 14.0822 10.6515 28.8224 10.6515 30.0264ZM19.17 30.0264H12.4769V26.4119H19.17V30.0264ZM19.17 24.5865H12.4769V23.3695H19.17V24.5865ZM19.17 21.544H12.4769C12.4769 21.0264 12.4769 9.90911 12.4769 9.31651H19.17C19.17 9.97021 19.17 21.055 19.17 21.544ZM12.2552 7.49104L15.8234 3.06435L19.3917 7.49104H12.2552ZM27.6886 30.0264H20.9955C20.9955 29.4575 20.9955 14.0952 20.9955 13.4755H27.6886V30.0264ZM20.9954 11.6501V9.31651H21.2996C21.9784 9.31651 22.4162 8.60074 22.1178 7.99913H28.202L29.2697 11.6501C28.9963 11.6501 21.4371 11.6501 20.9954 11.6501Z" fill="white"/>
<path d="M8.52241 14.6924H6.08851C5.58444 14.6924 5.17578 15.101 5.17578 15.6051V22.4566C5.17578 22.9607 5.58444 23.3694 6.08851 23.3694H8.52241C9.02648 23.3694 9.43514 22.9607 9.43514 22.4566V15.6051C9.43514 15.101 9.02648 14.6924 8.52241 14.6924ZM7.60974 21.5439H7.00125V16.5178H7.60974V21.5439Z" fill="white"/>
<path d="M8.52241 24.5867H6.08851C5.58444 24.5867 5.17578 24.9953 5.17578 25.4994V27.8969C5.17578 28.401 5.58444 28.8096 6.08851 28.8096H8.52241C9.02648 28.8096 9.43514 28.401 9.43514 27.8969V25.4994C9.43514 24.9953 9.02648 24.5867 8.52241 24.5867ZM7.60974 26.9842H7.00125V26.4121H7.60974V26.9842Z" fill="white"/>
<path d="M17.0419 14.6924H14.608C14.104 14.6924 13.6953 15.101 13.6953 15.6051V18.0026C13.6953 18.5067 14.104 18.9154 14.608 18.9154H17.0419C17.546 18.9154 17.9547 18.5067 17.9547 18.0026V15.6051C17.9546 15.101 17.546 14.6924 17.0419 14.6924ZM16.1292 17.0899H15.5207V16.5178H16.1292V17.0899Z" fill="white"/>
<path d="M25.5576 14.6924H23.1237C22.6196 14.6924 22.2109 15.101 22.2109 15.6051V22.4566C22.211 22.9607 22.6197 23.3694 23.1237 23.3694H25.5576C26.0616 23.3694 26.4703 22.9607 26.4703 22.4566V15.6051C26.4703 15.101 26.0616 14.6924 25.5576 14.6924ZM24.6449 21.5439H24.0364V16.5178H24.6449V21.5439Z" fill="white"/>
<path d="M25.5576 24.5867H23.1237C22.6196 24.5867 22.2109 24.9953 22.2109 25.4994V27.8969C22.211 28.401 22.6197 28.8096 23.1237 28.8096H25.5576C26.0616 28.8096 26.4703 28.401 26.4703 27.8969V25.4994C26.4703 24.9953 26.0616 24.5867 25.5576 24.5867ZM24.6449 26.9842H24.0364V26.4121H24.6449V26.9842Z" fill="white"/>
</svg>
